<?xml version="1.0" encoding="utf-8"?>
<!-- Generator: Adobe Illustrator 23.0.3, SVG Export Plug-In . SVG Version: 6.00 Build 0)  -->
<svg version="1.1" id="Ebene_1" xmlns="http://www.w3.org/2000/svg" xmlns:xlink="http://www.w3.org/1999/xlink" x="0px" y="0px"
	 viewBox="0 0 286.3 85" style="enable-background:new 0 0 286.3 85;" xml:space="preserve">
<style type="text/css">
	.st0{fill:#0069B4;}
</style>
<path class="st0" d="M1.7,47.1h14.9c8.7,0,13.3,2.7,13.3,7.1c0,4.8-4.9,7.2-14.6,7.2H1.7V47.1z M14.1,58.6c6.8,0,10.2-1,10.2-4.7
	c0-3-2.6-4.3-7.7-4.3H7.2v9H14.1z"/>
<path class="st0" d="M35.4,47.1h23.7v2.5H40.8v3.1h10.7v2.5H40.8v3.5h18.6v2.7h-24V47.1z"/>
<path class="st0" d="M64.5,47.1h3.7L87,56.5v-9.4h4.9v14.2h-3.7l-18.7-9.6v9.6h-4.9V47.1z"/>
<path class="st0" d="M112.3,61.3h-5.4V49.6H96.3v-2.6H123v2.6h-10.7V61.3z"/>
<path class="st0" d="M136.6,47.1h5.2l13.3,14.2H149l-2.8-3.1h-14.6l-2.8,3.1h-5.4L136.6,47.1z M144.1,55.6l-5.2-5.9l-5,5.9H144.1z"
	/>
<path class="st0" d="M164.9,58.6h15.4V47.1h5.4v10.9c0,2.7-1.4,3.4-5.8,3.4h-14.6c-4.4,0-5.7-0.7-5.7-3.4V47.1h5.4V58.6z"/>
<path class="st0" d="M191.4,47.1h19.9c3.6,0,5.2,0.8,5.2,2.8v3.4c0,1.9-1.6,2.7-5.2,2.7h-3l10.5,5.4H211l-9.3-5.4h-5.1v5.4h-5.3
	V47.1z M196.7,49.5v3.9H209c1.6,0,2.5-0.2,2.5-1.1v-1.6c0-0.9-0.8-1.1-2.5-1.1H196.7z"/>
<path class="st0" d="M228.1,58.6h15.4V47.1h5.4v10.9c0,2.7-1.4,3.4-5.8,3.4h-14.6c-4.4,0-5.7-0.7-5.7-3.4V47.1h5.4V58.6z"/>
<path class="st0" d="M254.6,47.1h4.3l10.8,8.4l10.8-8.4h4.3v14.2h-5v-9.8l-9.9,8.1h-1l-10-7.8v9.5h-4.3V47.1z"/>
<g>
	<path d="M73.2,68.5h17.1v1.9H77.2v2.7h7.1V75h-7.1v3.9h-4V68.5z"/>
	<path d="M94.2,68.5h14.5c2.6,0,3.8,0.6,3.8,2V73c0,1.4-1.2,2-3.8,2h-2.2l7.7,3.9h-5.6l-6.7-3.9H98v3.9h-3.9V68.5z M98,70.3v2.9h9
		c1.2,0,1.8-0.1,1.8-0.8v-1.2c0-0.7-0.6-0.8-1.8-0.8H98z"/>
	<path d="M126.1,68.5h3.8l9.7,10.4h-4.4l-2-2.3h-10.7l-2,2.3h-3.9L126.1,68.5z M131.5,74.7l-3.8-4.3l-3.6,4.3H131.5z"/>
	<path d="M143.5,68.5h2.7l13.7,6.9v-6.9h3.5v10.4h-2.7l-13.6-7v7h-3.6V68.5z"/>
	<path d="M174.2,70.4v6.5h10.6v-2.2l4,0.5v1.2c0,1.9-1,2.5-4.2,2.5h-10.1c-3.2,0-4.2-0.5-4.2-2.5V71c0-1.9,1-2.5,4.2-2.5h10.1
		c3.2,0,4.2,0.5,4.2,2.5v1l-4,0.4v-1.9H174.2z"/>
	<path d="M195.2,68.5h17.3v1.8h-13.3v2.3h7.8v1.8h-7.8V77h13.5v1.9h-17.5V68.5z"/>
</g>
<path class="st0" d="M146.7,1.9c0,0-33.9,0-36.7,0c0,2.7,0,34.1,0,36.8c2.7,0,33.1,0,33.1,0c11.7,0,18.8-0.9,23.8-3
	c7.7-3.2,12.2-8.9,12.2-15.7C179.2,8.4,167.7,1.9,146.7,1.9z M140.2,34.2h-19.3V6h26c17.4,0,21.1,7.6,21.1,13.9
	C167.9,32.5,154.6,34.2,140.2,34.2z"/>
</svg>
