<?xml version="1.0" encoding="UTF-8" standalone="no"?>
<svg
   xmlns:dc="http://purl.org/dc/elements/1.1/"
   xmlns:cc="http://creativecommons.org/ns#"
   xmlns:rdf="http://www.w3.org/1999/02/22-rdf-syntax-ns#"
   xmlns:svg="http://www.w3.org/2000/svg"
   xmlns="http://www.w3.org/2000/svg"
   height="111.40302"
   width="266.79999"
   xml:space="preserve"
   viewBox="0 0 266.79998 111.40302"
   y="0px"
   x="0px"
   id="Calque_1"
   version="1.0"><metadata
     id="metadata45"><rdf:RDF><cc:Work
         rdf:about=""><dc:format>image/svg+xml</dc:format><dc:type
           rdf:resource="http://purl.org/dc/dcmitype/StillImage" /><dc:title></dc:title></cc:Work></rdf:RDF></metadata><defs
     id="defs43" /><style
     id="style3"
     type="text/css">
	.st0{fill:#949FA6;}
	.st1{fill:#3AAA35;}
</style><path
     id="path5"
     d="m 179.2,54.8 c 15.5,0 15.5,24.2 0,24.2 -6.6,0 -11.8,-4.5 -11.8,-12.1 0,-7.7 5.3,-12.1 11.8,-12.1 M 191,52.4 c -2.3,-4 -7.4,-6.5 -12.7,-6.5 -11.6,-0.1 -20.8,7.1 -20.8,20.9 0,14 8.7,21.3 20.5,21.2 4.5,-0.1 10.7,-2.3 12.9,-7 l 0.5,5.8 9.3,0 0,-39.9 -9.5,0 -0.2,5.5 z m -75.4,-5.5 0,21 c 0,12.4 7,19.6 16.5,19.6 5.6,0 9.4,-1.9 13.5,-6 l 0.6,5.4 8.8,0 0,-40 -9.7,0 0,20.4 c 0,6.1 -4.1,11.2 -10.2,11.2 -6.3,0 -9.6,-4.6 -9.6,-10.7 l 0,-20.9 -9.9,0 z m -24.5,-10.2 0,10.3 -7.4,0 0,8.5 7.4,0 0,17.2 c 0,9.9 5.7,14.9 14.3,14.6 3,-0.1 5.3,-0.6 8.2,-1.7 l -2.8,-8.4 c -1.5,0.7 -3.2,1.2 -4.8,1.2 -3.1,0 -5.2,-1.9 -5.2,-5.7 l 0,-17.2 11.1,0 0,-8.5 -11,0 0,-11.3 -9.8,1 z m -15,38.5 c -2.4,2.4 -5.6,3.3 -8.7,3.3 -6.1,0 -11.3,-4 -11.3,-11.7 0,-7 4.9,-11.8 11.5,-11.8 2.7,0 5.7,1.1 8,3.2 l 6.2,-6.6 c -4.4,-4.3 -8.7,-5.9 -14.4,-5.9 -11.6,0 -21.2,7 -21.2,21.1 0,14.2 9.6,21.1 21.2,21.1 5.9,0 10.8,-1.8 15.4,-6.3 L 76.1,75.2 Z M 21.7,54.8 C 37.2,54.8 37.2,79 21.7,79 15.1,79 9.9,74.5 9.9,66.9 9.9,59.2 15.2,54.8 21.7,54.8 M 33.5,52.4 C 31.2,48.4 26.1,45.9 20.8,45.9 9.2,45.8 0,53 0,66.8 0,80.8 8.7,88.1 20.5,88 25,87.9 31.2,85.7 33.4,81 l 0.5,5.8 9.3,0 0,-39.9 -9.5,0 -0.2,5.5 z" /><g
     transform="translate(-301.7,-220.9)"
     id="g7"><path
       style="fill:#949fa6"
       id="path9"
       d="m 301.7,321.6 2.3,0 0,10.6 -2.3,0 0,-10.6 z"
       class="st0" /><path
       style="fill:#949fa6"
       id="path11"
       d="m 308,321.6 2.1,0 5,6.5 0,-6.5 2.3,0 0,10.6 -2,0 -5.1,-6.7 0,6.7 -2.3,0 0,-10.6 z"
       class="st0" /><path
       style="fill:#949fa6"
       id="path13"
       d="m 323.8,323.7 -3.2,0 0,-2.1 8.8,0 0,2.1 -3.2,0 0,8.4 -2.3,0 0,-8.4 z"
       class="st0" /><path
       style="fill:#949fa6"
       id="path15"
       d="m 332.4,321.6 8,0 0,2.1 -5.7,0 0,2.1 5,0 0,2.1 -5,0 0,2.2 5.7,0 0,2.1 -8.1,0 0,-10.6 z"
       class="st0" /><path
       style="fill:#949fa6"
       id="path17"
       d="m 343.9,321.6 4.8,0 c 1.3,0 2.4,0.4 3.1,1.1 0.6,0.6 0.9,1.4 0.9,2.4 l 0,0 c 0,1.7 -0.9,2.8 -2.3,3.3 l 2.6,3.8 -2.7,0 -2.3,-3.4 -1.8,0 0,3.4 -2.3,0 0,-10.6 z m 4.7,5.1 c 1.1,0 1.8,-0.6 1.8,-1.5 l 0,0 c 0,-1 -0.7,-1.5 -1.8,-1.5 l -2.3,0 0,3 2.3,0 z"
       class="st0" /><path
       style="fill:#949fa6"
       id="path19"
       d="m 356.3,321.6 2.3,0 0,10.6 -2.3,0 0,-10.6 z"
       class="st0" /><path
       style="fill:#949fa6"
       id="path21"
       d="m 362.6,321.6 2.5,0 2.8,4.5 2.8,-4.5 2.5,0 0,10.6 -2.3,0 0,-6.9 -3,4.5 -0.1,0 -2.9,-4.5 0,6.9 -2.3,0 0,-10.6 z"
       class="st0" /><path
       style="fill:#3aaa35"
       id="path23"
       d="m 389.2,321.6 1.2,0 0,10.6 -1.2,0 0,-10.6 z"
       class="st1" /><path
       style="fill:#949fa6"
       id="path25"
       d="m 405.9,326.9 0,0 c 0,-3 2.3,-5.5 5.5,-5.5 2,0 3.2,0.7 4.2,1.6 l -1.5,1.7 c -0.8,-0.7 -1.6,-1.2 -2.7,-1.2 -1.8,0 -3.1,1.5 -3.1,3.3 l 0,0 c 0,1.8 1.3,3.3 3.1,3.3 1.2,0 2,-0.5 2.8,-1.2 l 1.5,1.5 c -1.1,1.2 -2.3,1.9 -4.3,1.9 -3.2,0.1 -5.5,-2.3 -5.5,-5.4 z"
       class="st0" /><path
       style="fill:#949fa6"
       id="path27"
       d="m 418.9,321.6 4.1,0 c 3.3,0 5.6,2.3 5.6,5.3 l 0,0 c 0,3 -2.3,5.3 -5.6,5.3 l -4.1,0 0,-10.6 z m 4.1,8.5 c 1.9,0 3.2,-1.3 3.2,-3.2 l 0,0 c 0,-1.9 -1.3,-3.2 -3.2,-3.2 l -1.8,0 0,6.4 1.8,0 z"
       class="st0" /><path
       style="fill:#949fa6"
       id="path29"
       d="m 432,321.6 4.1,0 c 3.3,0 5.6,2.3 5.6,5.3 l 0,0 c 0,3 -2.3,5.3 -5.6,5.3 l -4.1,0 0,-10.6 z m 4.2,8.5 c 1.9,0 3.2,-1.3 3.2,-3.2 l 0,0 c 0,-1.9 -1.3,-3.2 -3.2,-3.2 l -1.8,0 0,6.4 1.8,0 z"
       class="st0" /><path
       style="fill:#3aaa35"
       id="path31"
       d="m 457.3,321.6 1.2,0 0,10.6 -1.2,0 0,-10.6 z"
       class="st1" /><path
       style="fill:#949fa6"
       id="path33"
       d="m 474,326.9 0,0 c 0,-3 2.3,-5.5 5.5,-5.5 2,0 3.2,0.7 4.2,1.6 l -1.5,1.7 c -0.8,-0.7 -1.6,-1.2 -2.7,-1.2 -1.8,0 -3.1,1.5 -3.1,3.3 l 0,0 c 0,1.8 1.3,3.3 3.1,3.3 1.2,0 2,-0.5 2.8,-1.2 l 1.5,1.5 c -1.1,1.2 -2.3,1.9 -4.3,1.9 -3.2,0.1 -5.5,-2.3 -5.5,-5.4 z"
       class="st0" /><path
       style="fill:#949fa6"
       id="path35"
       d="m 487,321.6 4.1,0 c 3.3,0 5.6,2.3 5.6,5.3 l 0,0 c 0,3 -2.3,5.3 -5.6,5.3 l -4.1,0 0,-10.6 z m 4.1,8.5 c 1.9,0 3.2,-1.3 3.2,-3.2 l 0,0 c 0,-1.9 -1.3,-3.2 -3.2,-3.2 l -1.8,0 0,6.4 1.8,0 z"
       class="st0" /><path
       style="fill:#949fa6"
       id="path37"
       d="m 500.3,321.6 2.3,0 0,10.6 -2.3,0 0,-10.6 z"
       class="st0" /></g><path
     style="fill:#3aaa35"
     id="path39"
     d="m 238.4,0 c -17.6,0 -28.3,10.7 -28.3,28.3 0,4.8 0.8,9.1 2.4,12.8 0.2,0.4 0.5,0.7 1.1,0.7 l 9.8,0 c 1.3,0 0.6,-0.7 0.5,-0.8 -0.1,-0.1 -0.2,-0.2 -0.3,-0.4 -0.1,-0.1 -0.1,-0.2 -0.2,-0.2 -2.4,-3.1 -3.6,-7.2 -3.6,-12.1 0,-11.6 7.1,-18.7 18.7,-18.7 11.6,0 18.7,7.1 18.7,18.7 0,11.6 -7.1,18.7 -18.7,18.7 l -21.7,0 c -0.7,0 -0.5,0.4 -0.4,0.6 4.9,5.8 12.4,9 22.1,9 17.6,0 28.3,-10.7 28.3,-28.3 C 266.8,10.7 256.1,0 238.4,0 Z"
     class="st1" /></svg>